<svg width="122" height="16" viewBox="0 0 122 16" fill="none" xmlns="http://www.w3.org/2000/svg">
<path d="M4.68945 7.52441H7.28711V9.04199H4.68945V12.002H3.07617V9.04199H0.464844V7.52441H3.07617V4.75586H4.68945V7.52441ZM10.7527 7.26465H11.7644C12.2748 7.26009 12.6781 7.12793 12.9743 6.86816C13.2751 6.6084 13.4255 6.23242 13.4255 5.74023C13.4255 5.26628 13.3002 4.89941 13.0495 4.63965C12.8034 4.37533 12.4252 4.24316 11.9148 4.24316C11.4682 4.24316 11.1013 4.37305 10.8142 4.63281C10.5271 4.88802 10.3835 5.22298 10.3835 5.6377H8.72238C8.72238 5.12728 8.85682 4.66243 9.1257 4.24316C9.39914 3.82389 9.7774 3.49805 10.2605 3.26562C10.7481 3.02865 11.2927 2.91016 11.8943 2.91016C12.8877 2.91016 13.667 3.16081 14.2321 3.66211C14.8018 4.15885 15.0866 4.85156 15.0866 5.74023C15.0866 6.18685 14.9431 6.6084 14.656 7.00488C14.3734 7.39681 14.0066 7.69303 13.5554 7.89355C14.1023 8.0804 14.517 8.37435 14.7995 8.77539C15.0866 9.17643 15.2302 9.65495 15.2302 10.2109C15.2302 11.1042 14.9226 11.8151 14.3073 12.3438C13.6967 12.8724 12.8923 13.1367 11.8943 13.1367C10.9372 13.1367 10.1534 12.8815 9.5427 12.3711C8.93202 11.8607 8.62668 11.1816 8.62668 10.334H10.2878C10.2878 10.7715 10.4336 11.127 10.7253 11.4004C11.0215 11.6738 11.418 11.8105 11.9148 11.8105C12.4297 11.8105 12.8353 11.6738 13.1316 11.4004C13.4278 11.127 13.5759 10.7305 13.5759 10.2109C13.5759 9.68685 13.421 9.28353 13.1111 9.00098C12.8012 8.71842 12.3409 8.57715 11.7302 8.57715H10.7527V7.26465ZM23.3373 5.67188C23.3373 6.15951 23.212 6.59473 22.9614 6.97754C22.7107 7.35579 22.3689 7.6543 21.936 7.87305C22.4555 8.11458 22.8543 8.44499 23.1323 8.86426C23.4148 9.28353 23.5561 9.75749 23.5561 10.2861C23.5561 11.1611 23.2599 11.8561 22.6674 12.3711C22.075 12.8815 21.2866 13.1367 20.3022 13.1367C19.3133 13.1367 18.5203 12.8792 17.9233 12.3643C17.3308 11.8493 17.0346 11.1566 17.0346 10.2861C17.0346 9.75293 17.1759 9.27441 17.4584 8.85059C17.741 8.42676 18.1375 8.10091 18.6479 7.87305C18.2195 7.6543 17.88 7.35579 17.6293 6.97754C17.3832 6.59473 17.2602 6.15951 17.2602 5.67188C17.2602 4.82422 17.5336 4.15202 18.0805 3.65527C18.6274 3.15853 19.3657 2.91016 20.2954 2.91016C21.2296 2.91016 21.9702 3.15853 22.517 3.65527C23.0639 4.15202 23.3373 4.82422 23.3373 5.67188ZM21.895 10.2041C21.895 9.71191 21.7468 9.31543 21.4506 9.01465C21.159 8.70931 20.7716 8.55664 20.2885 8.55664C19.8054 8.55664 19.4181 8.70703 19.1264 9.00781C18.8393 9.30859 18.6957 9.70736 18.6957 10.2041C18.6957 10.6917 18.837 11.0814 19.1196 11.373C19.4067 11.6647 19.8009 11.8105 20.3022 11.8105C20.8035 11.8105 21.1931 11.6693 21.4711 11.3867C21.7537 11.1042 21.895 10.71 21.895 10.2041ZM21.683 5.7334C21.683 5.30046 21.5577 4.94499 21.3071 4.66699C21.0564 4.38444 20.7192 4.24316 20.2954 4.24316C19.8715 4.24316 19.5366 4.3776 19.2905 4.64648C19.0444 4.91081 18.9213 5.27311 18.9213 5.7334C18.9213 6.18913 19.0444 6.55143 19.2905 6.82031C19.5411 7.08919 19.8784 7.22363 20.3022 7.22363C20.726 7.22363 21.061 7.08919 21.3071 6.82031C21.5577 6.55143 21.683 6.18913 21.683 5.7334ZM35.5595 8.80957C35.5595 10.2406 35.2906 11.3206 34.7528 12.0498C34.2196 12.7744 33.4061 13.1367 32.3124 13.1367C31.2369 13.1367 30.4257 12.7835 29.8788 12.0771C29.3365 11.3662 29.0585 10.3158 29.0448 8.92578V7.20312C29.0448 5.77214 29.3114 4.69889 29.8446 3.9834C30.3824 3.2679 31.2004 2.91016 32.2987 2.91016C33.3879 2.91016 34.1991 3.25879 34.7323 3.95605C35.2701 4.65332 35.5458 5.69694 35.5595 7.08691V8.80957ZM33.8983 6.9502C33.8983 6.01595 33.7707 5.33236 33.5155 4.89941C33.2603 4.46191 32.8547 4.24316 32.2987 4.24316C31.7564 4.24316 31.3576 4.45052 31.1024 4.86523C30.8472 5.27539 30.7128 5.91797 30.6991 6.79297V9.04883C30.6991 9.97852 30.829 10.6712 31.0888 11.127C31.3485 11.5827 31.7564 11.8105 32.3124 11.8105C32.8456 11.8105 33.2398 11.6009 33.495 11.1816C33.7502 10.7578 33.8846 10.097 33.8983 9.19922V6.9502ZM42.0191 8.83691C41.4632 9.4248 40.8137 9.71875 40.0709 9.71875C39.1959 9.71875 38.4986 9.41341 37.9791 8.80273C37.4596 8.1875 37.1998 7.38086 37.1998 6.38281C37.1998 5.72656 37.332 5.13184 37.5963 4.59863C37.8606 4.06543 38.2366 3.65072 38.7242 3.35449C39.2119 3.05827 39.777 2.91016 40.4195 2.91016C41.4221 2.91016 42.2174 3.28385 42.8053 4.03125C43.3932 4.77865 43.6871 5.77897 43.6871 7.03223V7.49707C43.6871 9.29264 43.2815 10.6621 42.4703 11.6055C41.6591 12.5488 40.4492 13.0273 38.8404 13.041H38.6422V11.667H38.8814C39.8613 11.6533 40.6132 11.4186 41.1373 10.9629C41.6614 10.5026 41.9553 9.79395 42.0191 8.83691ZM40.4195 8.41992C40.7522 8.41992 41.0644 8.32422 41.3561 8.13281C41.6477 7.94141 41.8733 7.67708 42.0328 7.33984V6.69043C42.0328 5.95671 41.8824 5.36654 41.5816 4.91992C41.2809 4.47331 40.8912 4.25 40.4127 4.25C39.9342 4.25 39.5514 4.44824 39.2643 4.84473C38.9817 5.23665 38.8404 5.7334 38.8404 6.33496C38.8404 6.95931 38.984 7.46289 39.2711 7.8457C39.5582 8.22852 39.941 8.41992 40.4195 8.41992ZM50.7142 2.99902V4.37305H50.5091C49.5794 4.38672 48.8366 4.64193 48.2806 5.13867C47.7246 5.63542 47.3942 6.33952 47.2894 7.25098C47.8226 6.69043 48.5039 6.41016 49.3333 6.41016C50.2129 6.41016 50.9056 6.72005 51.4114 7.33984C51.9219 7.95964 52.1771 8.75944 52.1771 9.73926C52.1771 10.751 51.8786 11.5713 51.2816 12.2002C50.6891 12.8245 49.9098 13.1367 48.9437 13.1367C47.9502 13.1367 47.1435 12.7699 46.5238 12.0361C45.9085 11.3024 45.6009 10.3408 45.6009 9.15137V8.58398C45.6009 6.83854 46.0247 5.47135 46.8724 4.48242C47.7246 3.49349 48.9482 2.99902 50.5433 2.99902H50.7142ZM48.93 7.75C48.5654 7.75 48.2305 7.85254 47.9251 8.05762C47.6243 8.2627 47.4033 8.53613 47.262 8.87793V9.38379C47.262 10.1221 47.417 10.71 47.7269 11.1475C48.0368 11.5804 48.4378 11.7969 48.93 11.7969C49.4222 11.7969 49.8118 11.6123 50.0989 11.2432C50.3861 10.874 50.5296 10.3887 50.5296 9.78711C50.5296 9.18555 50.3838 8.69564 50.0921 8.31738C49.8004 7.93913 49.4131 7.75 48.93 7.75ZM62.0476 13H60.3933V5.00879L57.9529 5.84277V4.44141L61.8357 3.0127H62.0476V13ZM70.2846 13H68.6303V5.00879L66.1899 5.84277V4.44141L70.0727 3.0127H70.2846V13ZM78.5217 13H76.8674V5.00879L74.427 5.84277V4.44141L78.3098 3.0127H78.5217V13ZM90.525 13H88.8707V5.00879L86.4303 5.84277V4.44141L90.3131 3.0127H90.525V13ZM98.7621 13H97.1078V5.00879L94.6673 5.84277V4.44141L98.5502 3.0127H98.7621V13ZM110.765 13H109.111V5.00879L106.671 5.84277V4.44141L110.554 3.0127H110.765V13ZM119.002 13H117.348V5.00879L114.908 5.84277V4.44141L118.791 3.0127H119.002V13Z" fill="#757575"/>
</svg>
